<svg viewBox="0 0 16 16" xmlns="http://www.w3.org/2000/svg" width="100%" height="100%">
  <defs>
    <linearGradient id="fixGradientDark" x1="0%" y1="0%" x2="100%" y2="100%">
      <stop offset="0%" stop-color="#FFDC00" />
      <stop offset="50%" stop-color="#2ECC40" />
      <stop offset="100%" stop-color="#0074D9" />
    </linearGradient>
  </defs>
  <!-- Lightbulb shape -->
  <path d="M8 1C5.5 1 3.5 3 3.5 5.5C3.5 7.2 4.5 8.7 6 9.5V11.5C6 12.3 6.7 13 7.5 13H8.5C9.3 13 10 12.3 10 11.5V9.5C11.5 8.7 12.5 7.2 12.5 5.5C12.5 3 10.5 1 8 1Z" 
        fill="url(#fixGradientDark)" />
  <!-- Bulb base lines -->
  <line x1="6.5" y1="14" x2="9.5" y2="14" stroke="url(#fixGradientDark)" stroke-width="1" stroke-linecap="round"/>
  <line x1="6.5" y1="15" x2="9.5" y2="15" stroke="url(#fixGradientDark)" stroke-width="1" stroke-linecap="round"/>
  <!-- Wrench overlay for "fix" -->
  <path d="M7.5 4L9.5 6L8.5 7L6.5 5" stroke="#FFFFFF" stroke-width="0.8" fill="none" stroke-linecap="round"/>
</svg>
