<svg xmlns="http://www.w3.org/2000/svg" viewBox="0 0 495 512.151">
  <!-- Outlined Bubble Letter M (Borders only, no fill) -->
  <path fill="none" stroke="currentColor" stroke-width="15" stroke-linecap="round" stroke-linejoin="round" d="M390.452 497.79c-15.459 0-28.99-2.902-40.581-8.696-11.597-5.803-20.614-15.997-27.056-30.598-6.442-14.6-9.663-35.003-9.663-61.201 0-23.189 1.716-47.772 5.155-73.752 3.432-25.988 7.831-52.506 13.205-79.562 30.967-156.098.632-6.697-30.598 41.875-15.465 24.046-32.858 36.072-52.178 36.072-12.026 0-22.868-4.29-32.531-12.884-9.663-8.587-19.007-24.693-28.023-48.31-13.946-36.531-42.559-173.396-21.581-47.67a4801.892 4801.892 0 019.344 58.301c3.003 19.537 5.475 38.108 7.409 55.719 1.927 17.603 2.894 33.28 2.894 47.022 0 19.757-2.363 37.687-7.082 53.793-4.726 16.098-12.885 28.874-24.483 38.327-11.59 9.445-27.695 14.171-48.309 14.171-27.485 0-47.779-8.267-60.875-24.802-13.102-16.535-19.646-43.911-19.646-82.135 0-15.888.538-34.459 1.607-55.72 1.076-21.253 2.581-43.264 4.508-66.022 1.934-22.767 4.188-44.878 6.769-66.35 2.574-21.472 5.148-40.159 7.729-56.047 6.014-36.072 16.637-61.732 31.885-76.98 15.247-15.24 34.676-22.868 58.3-22.868 15.459 0 30.488 4.189 45.089 12.565 14.6 8.376 28.023 23.835 40.26 46.383 12.238 22.541 22.01 54.861 29.311 96.947h2.573c6.872-43.809 15.786-77.948 26.737-102.429 10.95-24.476 23.296-41.548 37.039-51.211 13.743-9.657 28.561-14.492 44.449-14.492 24.903 0 44.66 8.056 59.26 24.155 14.6 16.105 25.34 38.763 32.211 67.964 5.584 23.617 10.413 50.891 14.492 81.808 4.079 30.917 7.191 62.591 9.343 95.013 2.145 32.422 3.221 62.808 3.221 91.152 0 44.23-8.158 75.366-24.482 93.406-16.316 18.032-38.217 27.056-65.702 27.056z" />
</svg>
